<svg width="24" height="24" viewBox="0 0 24 24" fill="none" xmlns="http://www.w3.org/2000/svg">
<path d="M12 0.625C5.71641 0.625 0.625 5.71641 0.625 12C0.625 18.2836 5.71641 23.375 12 23.375C18.2836 23.375 23.375 18.2836 23.375 12C23.375 5.71641 18.2836 0.625 12 0.625ZM17.8242 8.85547L10.5125 16.2H10.507C10.4141 16.293 10.1625 16.5008 9.87266 16.5008C9.66484 16.5008 9.42969 16.3859 9.23281 16.1891L6.17031 13.1266C6.08281 13.0391 6.08281 12.9023 6.17031 12.8148L7.14375 11.8414C7.1875 11.7977 7.24219 11.7758 7.29688 11.7758C7.35156 11.7758 7.40625 11.7977 7.45 11.8414L9.87813 14.2695L16.55 7.54844C16.5938 7.50469 16.6484 7.48281 16.7031 7.48281C16.7633 7.48281 16.818 7.50469 16.8562 7.54844L17.8133 8.53828C17.9117 8.63125 17.9117 8.76797 17.8242 8.85547Z" fill="#D64200"/>
</svg>
