<svg width="236" height="222" viewBox="0 0 236 222" fill="none" xmlns="http://www.w3.org/2000/svg">
<path fill-rule="evenodd" clip-rule="evenodd" d="M233.805 77.7904L161.5 119.536L235.875 162.476C221.594 188.179 194.167 205.572 162.679 205.572C116.464 205.572 79 168.107 79 121.893C79 75.6785 116.464 38.2144 162.679 38.2144C192.708 38.2144 219.042 54.0322 233.805 77.7904Z" fill="#F2682A"/>
<path d="M88.0162 162.373C109.532 180.976 133.563 158.021 113.915 180.745C94.2671 203.47 60.8974 206.811 39.3817 188.209C17.8661 169.606 16.3521 136.103 36.0001 113.379C55.6481 90.6542 66.5005 143.77 88.0162 162.373Z" fill="#F2682A"/>
<path d="M155.328 0L155.712 52.9619L157.672 99.761L108 61.5932L155.328 0Z" fill="#F2682A"/>
<path d="M176.327 12.2217L177.602 35.9L179.453 56.7894L156.443 40.7541L176.327 12.2217Z" fill="#F2682A"/>
</svg>
