<svg width="256" height="208" viewBox="0 0 256 208" fill="none" xmlns="http://www.w3.org/2000/svg">
<path d="M80.5835 154.315C94.6307 179.047 124.96 165.46 98.8383 180.297C72.7168 195.133 40.1537 187.112 26.1065 162.38C12.0593 137.648 21.8474 105.572 47.9689 90.7352C74.0903 75.8987 66.5363 129.583 80.5835 154.315Z" fill="#F2682A"/>
<path fill-rule="evenodd" clip-rule="evenodd" d="M255.462 114.782L171.143 121.964L255.861 129.181C253.344 173.134 216.905 208 172.321 208C126.107 208 88.6428 170.536 88.6428 124.321C88.6428 78.107 126.107 40.6428 172.321 40.6428C215.31 40.6428 250.727 73.0595 255.462 114.782Z" fill="#F2682A"/>
<path d="M166.328 0L166.712 52.9619L168.672 99.761L119 61.5932L166.328 0Z" fill="#F2682A"/>
<path d="M187.327 12.2217L188.602 35.9L190.453 56.7894L167.443 40.7541L187.327 12.2217Z" fill="#F2682A"/>
</svg>
