<svg width="238" height="215" viewBox="0 0 238 215" fill="none" xmlns="http://www.w3.org/2000/svg">
<path d="M80.5942 161.797C94.6414 186.529 124.97 172.943 98.849 187.779C72.7276 202.616 40.1644 194.594 26.1172 169.862C12.07 145.131 21.8581 113.054 47.9796 98.2176C74.1011 83.3811 66.547 137.066 80.5942 161.797Z" fill="#F2682A"/>
<path fill-rule="evenodd" clip-rule="evenodd" d="M235.603 87.9234L157.929 119.536L237.272 151.827C225.229 183.257 194.774 205.572 159.107 205.572C112.893 205.572 75.4286 168.107 75.4286 121.893C75.4286 75.6785 112.893 38.2144 159.107 38.2144C193.228 38.2144 222.578 58.636 235.603 87.9234Z" fill="#F2682A"/>
<path d="M148.328 0L148.712 52.9619L150.672 99.761L101 61.5932L148.328 0Z" fill="#F2682A"/>
<path d="M169.327 12.2217L170.602 35.9L172.453 56.7894L149.443 40.7541L169.327 12.2217Z" fill="#F2682A"/>
</svg>
