<svg width="248" height="208" viewBox="0 0 248 208" fill="none" xmlns="http://www.w3.org/2000/svg">
<path d="M80.5835 154.315C94.6307 179.047 124.96 165.46 98.8383 180.297C72.7168 195.133 40.1537 187.112 26.1065 162.38C12.0593 137.648 21.8474 105.572 47.9689 90.7352C74.0903 75.8987 66.5363 129.583 80.5835 154.315Z" fill="#F2682A"/>
<path fill-rule="evenodd" clip-rule="evenodd" d="M245.954 101.112L164.357 121.964L247.097 143.108C238.571 180.277 205.291 208 165.536 208C119.321 208 81.8572 170.536 81.8572 124.321C81.8572 78.107 119.321 40.6428 165.536 40.6428C203.697 40.6428 235.893 66.1885 245.954 101.112Z" fill="#F2682A"/>
<path d="M166.328 0L166.712 52.9619L168.672 99.761L119 61.5932L166.328 0Z" fill="#F2682A"/>
<path d="M187.327 12.2217L188.602 35.9L190.453 56.7894L167.443 40.7541L187.327 12.2217Z" fill="#F2682A"/>
</svg>
