<svg width="206" height="36" viewBox="0 0 206 36" fill="none" xmlns="http://www.w3.org/2000/svg">
<path d="M9.66556 19.4559V35.116H2.56436V19.4559H0V13.9511H2.56436V9.77517C2.56436 7.40272 2.81107 4.69787 5.03007 2.42028C6.46011 0.948584 8.48202 0 11.1944 0C12.7724 0 14.0543 0.284578 15.2383 0.711439V6.69088C14.4493 6.21619 13.4134 5.8842 12.5256 5.8842C11.441 5.8842 10.7504 6.35887 10.4545 6.73831C9.66556 7.73511 9.66556 9.39594 9.66556 10.3921V13.9513H15.2875V19.4561H9.66556V19.4559Z" fill="white"/>
<path d="M35.6338 32.4095C33.9762 34.3077 31.1585 35.8268 27.5531 35.8268C23.9481 35.8268 21.1301 34.3079 19.4724 32.4095C17.608 30.2738 16.696 27.2368 16.696 24.5325C16.696 21.8275 17.608 18.7904 19.4724 16.6547C21.1301 14.7566 23.9481 13.2383 27.5531 13.2383C31.1585 13.2383 33.9762 14.7564 35.6338 16.6547C37.4987 18.7904 38.4102 21.8277 38.4102 24.5325C38.4102 27.237 37.4987 30.274 35.6338 32.4095ZM24.1968 20.5459C23.3265 21.5425 22.8293 22.8235 22.8293 24.5323C22.8293 26.4779 23.4921 27.7115 24.1968 28.5182C24.9425 29.3723 26.02 30.0369 27.5946 30.0369C28.9208 30.0369 30.0397 29.5148 30.91 28.5182C31.7799 27.5214 32.2773 26.2406 32.2773 24.5323C32.2773 22.8235 31.7799 21.5425 30.91 20.5459C30.0397 19.5497 28.9208 19.0278 27.5533 19.0278C26.1858 19.0278 25.0669 19.5497 24.197 20.5459H24.1968Z" fill="white"/>
<path d="M48.5219 23.5843L41.1871 13.9508H48.8118L52.2514 18.8388L55.6908 13.9508H63.3155L55.981 23.5843L65.0144 35.1157H57.3066L52.2514 28.2821L47.1958 35.1157H39.4882L48.5219 23.5843Z" fill="white"/>
<path d="M67.4178 13.9509H73.3847V16.4186C74.9179 13.7616 77.1557 13.4288 78.5646 13.4288C79.3522 13.4288 80.8025 13.524 82.0457 14.3784C82.9986 14.9951 83.7862 16.0394 84.2832 17.3207C84.7391 16.466 85.4436 15.4698 86.6455 14.6155C87.93 13.7135 89.1317 13.4288 90.5821 13.4288C92.82 13.4288 94.643 14.1882 95.762 15.4226C97.5438 17.3682 97.6683 20.2151 97.6683 21.734V35.1158H91.701V24.391C91.701 23.2996 91.701 21.4012 90.9135 20.2623C90.4163 19.5509 89.6293 19.1234 88.7589 19.1234C87.7642 19.1234 86.9352 19.6456 86.4382 20.405C85.6507 21.5439 85.5265 23.2047 85.5265 24.581V35.1156H79.5596V24.1061C79.5596 22.6824 79.5182 21.0214 78.6065 19.9774C77.9849 19.2659 77.239 19.1232 76.6174 19.1232C75.8299 19.1232 75.1258 19.3608 74.5455 19.9774C73.4265 21.2115 73.3851 23.584 73.3851 24.296V35.1156H67.4182V13.9507L67.4178 13.9509Z" fill="white"/>
<path d="M105.75 0.948792C107.698 0.948792 109.231 2.70506 109.231 4.93542C109.231 7.16558 107.698 8.92124 105.75 8.92124C103.802 8.92124 102.269 7.16558 102.269 4.93542C102.269 2.70506 103.802 0.948792 105.75 0.948792ZM109.231 14.358V35.5229L102.767 35.1162V13.9513L109.231 14.358Z" fill="white"/>
<path d="M113.788 13.9504H119.755V16.4656C121.578 13.8083 123.733 13.3809 125.473 13.3809C127.089 13.3809 129.203 13.7131 130.777 15.5166C132.518 17.5096 132.642 20.0245 132.642 21.7336V35.1153H126.675V24.2487C126.675 22.8725 126.634 21.1162 125.681 20.0247C125.225 19.5026 124.479 19.0757 123.402 19.0757C122.158 19.0757 121.371 19.6453 120.915 20.2147C119.92 21.3537 119.755 22.8725 119.755 24.2487V35.1153H113.788V13.9504Z" fill="white"/>
<path d="M157.423 35.116H151.457V32.5536C150.545 34.0717 148.887 35.828 145.614 35.828C142.879 35.828 140.89 34.8312 139.274 32.9328C137.368 30.7497 136.373 27.7129 136.373 24.4383C136.373 20.9271 137.492 18.032 139.274 16.0864C140.89 14.3307 143.169 13.2392 145.697 13.2392C147.727 13.2392 149.965 13.9987 151.457 16.3237V0.521484H157.424V35.1156L157.423 35.116ZM143.956 20.5475C143.086 21.4969 142.506 22.8731 142.506 24.5813C142.506 26.1475 143.086 27.5229 143.956 28.4725C144.868 29.4693 146.028 29.9434 147.064 29.9434C148.183 29.9434 149.509 29.4213 150.462 28.3779C151.167 27.6184 151.83 26.337 151.83 24.5815C151.83 22.7778 151.208 21.5443 150.503 20.6902C149.551 19.5513 148.432 19.124 147.147 19.124C145.945 19.124 144.909 19.5035 143.956 20.5477V20.5475Z" fill="white"/>
<path d="M181.336 25.7191H167.536C167.536 26.858 167.909 28.3767 168.655 29.3256C169.567 30.4645 170.81 30.6545 171.722 30.6545C172.592 30.6545 173.504 30.4643 174.126 30.0375C174.208 29.9895 174.913 29.4681 175.41 28.2812L181.046 28.946C180.217 31.935 178.559 33.5012 177.482 34.2609C175.7 35.4942 173.711 35.827 171.639 35.827C168.862 35.827 166.418 35.2575 164.263 32.7898C162.647 30.9388 161.487 28.1391 161.487 24.6272C161.487 21.5901 162.439 18.4584 164.305 16.2753C166.542 13.7125 169.318 13.2383 171.39 13.2383C173.463 13.2383 176.446 13.6651 178.725 16.4174C180.921 19.075 181.336 22.3968 181.336 25.0064V25.7187V25.7191ZM175.824 21.6378C175.783 21.4476 175.493 20.1196 174.622 19.1701C173.96 18.4586 173.006 17.9839 171.805 17.9839C170.271 17.9839 169.359 18.696 168.779 19.3602C168.324 19.9295 167.909 20.6888 167.743 21.6378H175.824Z" fill="white"/>
<path d="M205.204 35.116H199.237V32.5536C198.325 34.0717 196.667 35.828 193.394 35.828C190.659 35.828 188.67 34.8312 187.054 32.9328C185.148 30.7497 184.154 27.7129 184.154 24.4383C184.154 20.9271 185.272 18.032 187.054 16.0864C188.67 14.3307 190.949 13.2392 193.477 13.2392C195.508 13.2392 197.745 13.9987 199.237 16.3237V0.521484H205.204V35.1156L205.204 35.116ZM191.736 20.5475C190.866 21.4969 190.286 22.8731 190.286 24.5813C190.286 26.1475 190.866 27.5229 191.736 28.4725C192.648 29.4693 193.808 29.9434 194.844 29.9434C195.963 29.9434 197.289 29.4213 198.242 28.3779C198.947 27.6184 199.61 26.337 199.61 24.5815C199.61 22.7778 198.988 21.5443 198.283 20.6902C197.331 19.5513 196.212 19.124 194.927 19.124C193.725 19.124 192.69 19.5035 191.736 20.5477V20.5475Z" fill="white"/>
</svg>
