<svg width="174" height="61" viewBox="0 0 174 61" fill="none" xmlns="http://www.w3.org/2000/svg">
    <path fill-rule="evenodd" clip-rule="evenodd"
          d="M13.8147 4.49414H160.526C163.787 4.49414 164.967 4.85936 166.159 5.53761C167.336 6.20491 168.298 7.23663 168.92 8.49847C169.553 9.77673 169.894 11.0419 169.894 14.5245V46.6374C169.894 50.12 169.553 51.3852 168.92 52.6635C168.298 53.9253 167.336 54.9571 166.159 55.6243C164.967 56.3026 163.787 56.6678 160.539 56.6678H13.8025C10.5544 56.6678 9.37442 56.3026 8.18223 55.6243C7.00536 54.9571 6.04311 53.9253 5.42074 52.6635C4.78816 51.3852 4.44753 50.12 4.44753 46.6374V14.5245C4.44753 11.0419 4.78816 9.77673 5.42074 8.49847C6.04311 7.23663 7.00536 6.20491 8.18223 5.53761C9.37442 4.85936 10.5544 4.49414 13.8025 4.49414H13.8147Z"
          fill="black"/>
    <path d="M41.3687 30.6202C41.393 28.1811 42.5852 25.9377 44.5195 24.6594C43.9135 23.7327 43.1139 22.9707 42.1846 22.434C41.2553 21.8973 40.2219 21.6008 39.1668 21.5681C36.9284 21.3072 34.7508 23.0029 33.6073 23.0029C32.4395 23.0029 30.6755 21.5942 28.7778 21.6333C27.55 21.6762 26.3534 22.0592 25.3046 22.7449C24.2558 23.4306 23.3903 24.3957 22.7925 25.5464C20.2013 30.3594 22.1356 37.4159 24.6173 41.3028C25.8581 43.1941 27.2936 45.3202 29.2035 45.2419C31.0526 45.1637 31.7582 43.9767 33.9844 43.9767C36.2107 43.9767 36.8554 45.2419 38.7897 45.2028C40.7848 45.1637 42.0378 43.2854 43.2421 41.368C44.1302 40.0115 44.8236 38.5115 45.2737 36.9333C44.1166 36.4082 43.1293 35.5296 42.4349 34.407C41.7405 33.2843 41.3697 31.9674 41.3687 30.6202ZM37.707 19.0116C38.7948 17.6145 39.3315 15.8177 39.2033 14.0029C37.5367 14.1986 36.0038 15.0464 34.909 16.3899C34.3701 17.0467 33.9573 17.8111 33.6943 18.6392C33.4312 19.4673 33.3231 20.343 33.3762 21.2159C34.2067 21.2248 35.0283 21.031 35.7786 20.6491C36.5289 20.2672 37.1884 19.7072 37.707 19.0116Z"
          fill="white"/>
    <path d="M66.8549 39.2419H61.1008L59.7139 43.6245H57.2809L62.7309 27.4245H65.2734L70.7234 43.6245H68.2417L66.8549 39.2419ZM61.6968 37.2202H66.2588L64.0082 30.1115H63.9474L61.6968 37.2202ZM82.4993 37.7158C82.4993 41.381 80.6745 43.7419 77.9008 43.7419C77.2008 43.7819 76.5044 43.6098 75.8912 43.2454C75.2781 42.8809 74.773 42.3388 74.4338 41.681H74.3851V47.5245H72.1224V31.8071H74.3121V33.7636H74.3486C74.7032 33.1068 75.2176 32.5657 75.8369 32.1981C76.4561 31.8305 77.1569 31.6503 77.8643 31.6767C80.6623 31.6767 82.4993 34.0506 82.4993 37.7158ZM80.1757 37.7158C80.1757 35.3289 79.02 33.7506 77.2561 33.7506C75.5408 33.7506 74.3729 35.3549 74.3729 37.7158C74.3729 40.0897 75.5408 41.694 77.2682 41.694C79.02 41.694 80.1757 40.1288 80.1757 37.7158ZM94.6157 37.7158C94.6157 41.381 92.791 43.7419 90.0295 43.7419C89.3294 43.7819 88.633 43.6098 88.0199 43.2454C87.4067 42.8809 86.9017 42.3388 86.5624 41.681H86.5016V47.5245H84.251V31.8071H86.4408V33.7636H86.4773C86.8309 33.1088 87.3434 32.569 87.9603 32.2015C88.5772 31.834 89.2754 31.6527 89.9808 31.6767C92.7788 31.6767 94.6157 34.0506 94.6157 37.7158ZM92.3044 37.7158C92.3044 35.3289 91.1487 33.7506 89.3847 33.7506C87.6573 33.7506 86.5016 35.3549 86.5016 37.7158C86.5016 40.0897 87.6573 41.694 89.3847 41.694C91.1487 41.694 92.3044 40.1288 92.3044 37.7158ZM102.633 39.1114C102.803 40.7158 104.251 41.7723 106.246 41.7723C108.156 41.7723 109.53 40.7158 109.53 39.268C109.53 38.0028 108.691 37.2593 106.732 36.7375L104.786 36.2289C102 35.5115 100.723 34.1289 100.723 31.8724C100.723 29.068 102.985 27.1506 106.209 27.1506C109.409 27.1506 111.598 29.068 111.671 31.8724H109.384C109.25 30.255 107.997 29.2637 106.185 29.2637C104.36 29.2637 103.119 30.255 103.119 31.7028C103.119 32.8376 103.91 33.5289 105.856 34.0376L107.523 34.468C110.625 35.2506 111.902 36.5941 111.902 38.9549C111.902 41.994 109.652 43.8853 106.075 43.8853C102.73 43.8853 100.467 42.0332 100.321 39.1114H102.633ZM116.793 29.0158V31.8071H118.885V33.7245H116.793V40.2462C116.793 41.2506 117.206 41.7201 118.131 41.7201C118.374 41.7201 118.618 41.694 118.861 41.668V43.5723C118.459 43.6636 118.034 43.7027 117.62 43.6897C115.382 43.6897 114.518 42.7766 114.518 40.4941V33.7245H112.912V31.8071H114.518V29.0158H116.793ZM120.09 37.7158C120.09 33.9984 122.133 31.6637 125.321 31.6637C128.508 31.6637 130.552 34.0115 130.552 37.7158C130.552 41.4462 128.52 43.7679 125.321 43.7679C122.121 43.7679 120.09 41.4462 120.09 37.7158ZM128.24 37.7158C128.24 35.1723 127.145 33.6723 125.321 33.6723C123.496 33.6723 122.401 35.1723 122.401 37.7158C122.401 40.2723 123.496 41.7593 125.321 41.7593C127.145 41.7593 128.24 40.2723 128.24 37.7158ZM132.413 31.8071H134.566V33.8158H134.615C134.919 32.5245 136.026 31.6376 137.267 31.6897C137.522 31.6897 137.79 31.7158 138.045 31.781V34.0506C137.715 33.9388 137.37 33.8859 137.023 33.8941C136.694 33.8783 136.365 33.9397 136.059 34.0739C135.754 34.2082 135.479 34.412 135.255 34.6714C135.03 34.9308 134.861 35.2394 134.759 35.5759C134.657 35.9125 134.624 36.2688 134.663 36.6202V43.6245H132.413V31.8071ZM148.459 40.1549C148.155 42.294 146.208 43.7679 143.714 43.7679C140.515 43.7679 138.532 41.4593 138.532 37.768C138.532 34.0636 140.527 31.6637 143.629 31.6637C146.67 31.6637 148.592 33.9071 148.592 37.4941V38.3158H140.807V38.4723C140.772 38.9069 140.824 39.3444 140.959 39.7559C141.094 40.1674 141.308 40.5434 141.589 40.8592C141.87 41.1749 142.21 41.423 142.587 41.5872C142.963 41.7514 143.369 41.8278 143.775 41.8114C144.87 41.9158 145.904 41.2506 146.318 40.1549H148.459ZM140.819 36.6332H146.33C146.35 36.2424 146.295 35.8513 146.167 35.4845C146.04 35.1177 145.843 34.783 145.59 34.5014C145.336 34.2198 145.031 33.9973 144.694 33.8479C144.357 33.6985 143.994 33.6254 143.629 33.6332C142.887 33.6332 142.175 33.9493 141.651 34.5119C141.126 35.0745 140.831 35.8376 140.831 36.6332H140.819Z"
          fill="white"/>
    <path d="M61.4167 15.2288C61.8905 15.1938 62.3657 15.2719 62.8079 15.4575C63.2502 15.6431 63.6486 15.9315 63.9744 16.302C64.3002 16.6725 64.5453 17.1159 64.692 17.6002C64.8387 18.0845 64.8835 18.5977 64.823 19.1027C64.823 21.581 63.57 23.0158 61.4167 23.0158H58.7891V15.2288H61.4167ZM59.9204 21.9071H61.2829C61.6209 21.928 61.959 21.8683 62.2728 21.7321C62.5866 21.596 62.8683 21.3868 63.0976 21.1198C63.3268 20.8528 63.498 20.5345 63.5986 20.1879C63.6992 19.8414 63.7268 19.4752 63.6795 19.1158C63.7268 18.7564 63.6992 18.3902 63.5986 18.0436C63.498 17.6971 63.3268 17.3788 63.0976 17.1118C62.8683 16.8447 62.5866 16.6356 62.2728 16.4994C61.959 16.3633 61.6209 16.3035 61.2829 16.3245H59.9204V21.9071ZM66.1003 20.068C66.076 19.688 66.1248 19.3067 66.2437 18.9478C66.3626 18.5889 66.549 18.26 66.7915 17.9816C67.0339 17.7033 67.3271 17.4813 67.6529 17.3295C67.9788 17.1778 68.3302 17.0995 68.6854 17.0995C69.0406 17.0995 69.3921 17.1778 69.7179 17.3295C70.0437 17.4813 70.3369 17.7033 70.5793 17.9816C70.8218 18.26 71.0082 18.5889 71.1271 18.9478C71.246 19.3067 71.2948 19.688 71.2705 20.068C71.2948 20.4479 71.246 20.8292 71.1271 21.1881C71.0082 21.547 70.8218 21.8759 70.5793 22.1543C70.3369 22.4327 70.0437 22.6546 69.7179 22.8064C69.3921 22.9581 69.0406 23.0365 68.6854 23.0365C68.3302 23.0365 67.9788 22.9581 67.6529 22.8064C67.3271 22.6546 67.0339 22.4327 66.7915 22.1543C66.549 21.8759 66.3626 21.547 66.2437 21.1881C66.1248 20.8292 66.076 20.4479 66.1003 20.068ZM70.1513 20.068C70.1513 18.8027 69.6282 18.0593 68.6915 18.0593C67.7426 18.0593 67.2195 18.8027 67.2195 20.068C67.2195 21.3593 67.7426 22.0897 68.6793 22.0897C69.6282 22.0897 70.1513 21.3462 70.1513 20.068ZM78.1316 23.0158H77.0125L75.8811 18.6854H75.7959L74.6646 23.0158H73.5697L72.0491 17.1462H73.1439L74.1171 21.6201H74.2023L75.3337 17.1332H76.3677L77.4991 21.6201H77.5842L78.5574 17.1332H79.6401L78.1316 23.0158ZM80.9053 17.1462H81.9515V18.0723H82.0367C82.3165 17.381 82.9734 16.9636 83.6668 17.0288C83.9332 17.0061 84.2009 17.0481 84.45 17.1517C84.6991 17.2553 84.9232 17.4178 85.1056 17.6272C85.2881 17.8366 85.4241 18.0874 85.5035 18.3609C85.583 18.6345 85.6038 18.9237 85.5646 19.2071V23.0158H84.4697V19.494C84.4697 18.5549 84.1047 18.0854 83.3018 18.0854C83.1204 18.0747 82.9389 18.1066 82.7701 18.1787C82.6012 18.2508 82.449 18.3614 82.324 18.5029C82.199 18.6443 82.1042 18.8133 82.0462 18.9979C81.9882 19.1826 81.9683 19.3786 81.988 19.5723V23.0158H80.9053V17.1462ZM87.292 14.8506H88.3625V23.0158H87.2798L87.292 14.8506ZM89.871 20.068C89.8467 19.688 89.8955 19.3067 90.0144 18.9478C90.1333 18.5889 90.3197 18.26 90.5622 17.9816C90.8046 17.7033 91.0978 17.4813 91.4236 17.3295C91.7495 17.1778 92.1009 17.0995 92.4561 17.0995C92.8113 17.0995 93.1628 17.1778 93.4886 17.3295C93.8144 17.4813 94.1076 17.7033 94.35 17.9816C94.5925 18.26 94.7789 18.5889 94.8978 18.9478C95.0167 19.3067 95.0655 19.688 95.0412 20.068C95.0655 20.4479 95.0167 20.8292 94.8978 21.1881C94.7789 21.547 94.5925 21.8759 94.35 22.1543C94.1076 22.4327 93.8144 22.6546 93.4886 22.8064C93.1628 22.9581 92.8113 23.0365 92.4561 23.0365C92.1009 23.0365 91.7495 22.9581 91.4236 22.8064C91.0978 22.6546 90.8046 22.4327 90.5622 22.1543C90.3197 21.8759 90.1333 21.547 90.0144 21.1881C89.8955 20.8292 89.8467 20.4479 89.871 20.068ZM93.922 20.068C93.922 18.8027 93.3867 18.0593 92.4622 18.0593C91.5133 18.0593 90.9902 18.8027 90.9902 20.068C90.9902 21.3593 91.5133 22.0897 92.45 22.0897C93.3867 22.0897 93.922 21.3462 93.922 20.068ZM96.1726 21.3462C96.1726 20.3027 96.9025 19.6897 98.2163 19.5984L99.7005 19.5071V18.9984C99.7005 18.3854 99.3112 18.0332 98.5691 18.0332C97.9608 18.0332 97.5472 18.268 97.4377 18.6854H96.3794C96.501 17.668 97.3769 17.0288 98.6178 17.0288C99.9924 17.0288 100.771 17.7593 100.771 18.9984V23.0158H99.7248V22.181H99.6396C99.2868 22.794 98.6664 23.1462 97.9973 23.1071C97.7672 23.1326 97.5347 23.1061 97.3147 23.0293C97.0947 22.9525 96.8922 22.8271 96.7202 22.6611C96.5483 22.4952 96.4107 22.2924 96.3164 22.0659C96.222 21.8394 96.173 21.5943 96.1726 21.3462ZM99.7005 20.8506V20.3549L98.3623 20.4462C97.608 20.4984 97.2674 20.7853 97.2674 21.294C97.2674 21.8158 97.6932 22.1288 98.2771 22.1288C98.4495 22.1486 98.6237 22.1308 98.7895 22.0767C98.9553 22.0226 99.1092 21.9333 99.2421 21.8139C99.375 21.6946 99.484 21.5478 99.5628 21.3823C99.6415 21.2168 99.6884 21.0359 99.7005 20.8506ZM102.194 20.068C102.194 18.2158 103.082 17.0419 104.469 17.0419C105.163 17.0028 105.82 17.4071 106.148 18.0723H106.221V14.8506H107.316V23.0158H106.27V22.0897H106.184C105.832 22.7419 105.175 23.1332 104.469 23.1071C103.07 23.1071 102.194 21.9332 102.194 20.068ZM103.313 20.068C103.313 21.3201 103.861 22.0636 104.773 22.0636C105.686 22.0636 106.245 21.3071 106.245 20.081C106.245 18.8549 105.674 18.0854 104.773 18.0854C103.861 18.0854 103.313 18.8419 103.313 20.068ZM111.78 20.068C111.756 19.688 111.805 19.3067 111.924 18.9478C112.043 18.5889 112.229 18.26 112.472 17.9816C112.714 17.7033 113.007 17.4813 113.333 17.3295C113.659 17.1778 114.01 17.0995 114.366 17.0995C114.721 17.0995 115.072 17.1778 115.398 17.3295C115.724 17.4813 116.017 17.7033 116.259 17.9816C116.502 18.26 116.688 18.5889 116.807 18.9478C116.926 19.3067 116.975 19.688 116.951 20.068C116.975 20.4479 116.926 20.8292 116.807 21.1881C116.688 21.547 116.502 21.8759 116.259 22.1543C116.017 22.4327 115.724 22.6546 115.398 22.8064C115.072 22.9581 114.721 23.0365 114.366 23.0365C114.01 23.0365 113.659 22.9581 113.333 22.8064C113.007 22.6546 112.714 22.4327 112.472 22.1543C112.229 21.8759 112.043 21.547 111.924 21.1881C111.805 20.8292 111.756 20.4479 111.78 20.068ZM115.831 20.068C115.831 18.8027 115.296 18.0593 114.372 18.0593C113.423 18.0593 112.9 18.8027 112.9 20.068C112.9 21.3593 113.423 22.0897 114.359 22.0897C115.296 22.0897 115.831 21.3462 115.831 20.068ZM118.398 17.1462H119.432V18.0723H119.517C119.797 17.381 120.454 16.9636 121.16 17.0288C121.425 17.0082 121.691 17.0517 121.939 17.1562C122.187 17.2607 122.409 17.4236 122.59 17.6327C122.771 17.8418 122.906 18.0918 122.985 18.3644C123.064 18.6369 123.084 18.9249 123.045 19.2071V23.0158H121.975V19.494C121.975 18.5549 121.586 18.0854 120.783 18.0854C120.602 18.0767 120.422 18.11 120.255 18.183C120.087 18.2559 119.937 18.3668 119.813 18.5081C119.689 18.6493 119.596 18.8175 119.538 19.0012C119.481 19.1849 119.462 19.3797 119.481 19.5723V23.0158H118.386V17.1462H118.398ZM129.164 15.6723V17.1723H130.344V18.1375H129.164V21.1636C129.164 21.7766 129.396 22.0506 129.931 22.0506L130.344 22.0245V22.9897C130.15 23.0288 129.955 23.0419 129.761 23.0419C128.544 23.0419 128.082 22.5853 128.082 21.4636V18.1375H127.206V17.1723H128.082V15.6723H129.164ZM131.816 14.8506H132.899V18.0854H132.984C133.276 17.3941 133.945 16.9636 134.651 17.0419C134.915 17.0261 135.179 17.0729 135.425 17.179C135.67 17.2852 135.891 17.4481 136.071 17.6561C136.251 17.8641 136.386 18.1121 136.467 18.3824C136.547 18.6527 136.571 18.9388 136.537 19.2201V23.0027H135.454V19.5071C135.454 18.568 135.04 18.0984 134.286 18.0984C134.1 18.0804 133.912 18.1065 133.736 18.1749C133.56 18.2432 133.4 18.3522 133.268 18.494C133.136 18.6358 133.034 18.8071 132.97 18.9957C132.907 19.1843 132.882 19.3856 132.899 19.5853V23.0158H131.816V14.8506ZM142.838 21.4245C142.69 21.96 142.372 22.423 141.938 22.7329C141.505 23.0427 140.984 23.1797 140.466 23.1201C140.106 23.1291 139.748 23.0544 139.417 22.9011C139.087 22.7478 138.791 22.5195 138.551 22.2319C138.31 21.9443 138.131 21.6043 138.025 21.2353C137.918 20.8662 137.888 20.4769 137.936 20.094C137.889 19.7094 137.919 19.3183 138.025 18.9474C138.131 18.5764 138.31 18.2341 138.55 17.9436C138.789 17.6531 139.085 17.4211 139.415 17.2633C139.746 17.1055 140.104 17.0256 140.466 17.0288C141.986 17.0288 142.899 18.1375 142.899 19.9897V20.381H139.043V20.4593C139.026 20.6749 139.051 20.8919 139.117 21.0965C139.183 21.301 139.288 21.4885 139.425 21.647C139.563 21.8054 139.729 21.9313 139.915 22.0165C140.1 22.1018 140.301 22.1444 140.502 22.1419C141.025 22.2071 141.536 21.9201 141.804 21.4245H142.838ZM139.043 19.5332H141.804C141.818 19.3368 141.793 19.1395 141.731 18.9539C141.67 18.7683 141.573 18.5983 141.448 18.4549C141.322 18.3114 141.17 18.1975 141.001 18.1204C140.832 18.0433 140.65 18.0048 140.466 18.0071C140.278 18.0036 140.091 18.0406 139.917 18.1161C139.743 18.1915 139.585 18.3038 139.452 18.4462C139.319 18.5886 139.215 18.7583 139.144 18.945C139.074 19.1318 139.039 19.3318 139.043 19.5332Z"
          fill="white"/>
</svg>
