<svg width="173" height="61" viewBox="0 0 173 61" fill="none" xmlns="http://www.w3.org/2000/svg">
    <path fill-rule="evenodd" clip-rule="evenodd"
          d="M13.0167 4.4939H159.728C162.989 4.4939 164.169 4.85911 165.361 5.53737C166.538 6.20467 167.5 7.23639 168.122 8.49823C168.755 9.77648 169.096 11.0417 169.096 14.5243V46.6372C169.096 50.1198 168.755 51.385 168.122 52.6632C167.5 53.9251 166.538 54.9568 165.361 55.6241C164.169 56.3024 162.989 56.6676 159.741 56.6676H13.0046C9.75646 56.6676 8.57644 56.3024 7.38425 55.6241C6.20738 54.9568 5.24513 53.9251 4.62276 52.6632C3.99018 51.385 3.64955 50.1198 3.64955 46.6372V14.5243C3.64955 11.0417 3.99018 9.77648 4.62276 8.49823C5.24513 7.23639 6.20738 6.20467 7.38425 5.53737C8.57644 4.85911 9.75646 4.4939 13.0046 4.4939H13.0167Z"
          fill="black"/>
    <path fill-rule="evenodd" clip-rule="evenodd"
          d="M22.8215 43.3241L22.9675 43.3632C22.9181 43.3535 22.8693 43.3404 22.8215 43.3241ZM43.6239 28.4546C44.1713 28.7807 44.5119 29.2111 44.6214 29.6546L44.6458 29.8242C44.5971 30.3198 44.2443 30.8155 43.6117 31.1937L24.3908 42.8937C24.0015 43.1415 23.6244 43.2458 23.2959 43.2458C22.9553 43.2458 22.6633 43.1284 22.42 42.9067L22.347 42.8284C22.0282 42.4161 21.8673 41.8892 21.8969 41.3545V18.2938C21.8969 17.5894 22.0916 17.0546 22.42 16.7286C22.6633 16.5068 22.9553 16.3894 23.2959 16.3894C23.6244 16.3894 24.0015 16.5068 24.3908 16.7416L43.6117 28.4546H43.6239ZM23.2838 16.2329H23.4541H23.2838ZM134.96 42.7893H137.223V26.485H134.96V42.7893ZM155.397 32.3546L152.794 39.4241H152.721L150.02 32.3546H147.575L151.626 42.2415L149.315 47.7328H151.687L157.928 32.3546H155.397ZM142.527 40.9371C141.784 40.9371 140.75 40.5458 140.75 39.5545C140.75 38.2893 142.04 37.8067 143.147 37.8067C144.157 37.8067 144.619 38.0415 145.227 38.3545C145.145 39.0626 144.826 39.7145 144.329 40.1894C143.832 40.6643 143.192 40.93 142.527 40.9371ZM142.806 32.0024C141.152 32.0024 139.461 32.785 138.755 34.4937L140.763 35.4067C141.201 34.4937 142.003 34.2067 142.831 34.2067C144.011 34.2067 145.203 34.9502 145.227 36.2937V36.4633C144.497 36.0485 143.682 35.8334 142.855 35.8372C140.69 35.8372 138.476 37.1154 138.476 39.5024C138.476 41.6937 140.264 43.1024 142.247 43.1024C143.78 43.1024 144.619 42.3589 145.154 41.498H145.227V42.7632H147.417V36.5024C147.417 33.6198 145.397 32.0024 142.794 32.0024H142.806ZM128.768 34.3502H125.544V28.7415H128.768C130.471 28.7415 131.444 30.2546 131.444 31.5459C131.444 32.8111 130.471 34.3372 128.768 34.3372V34.3502ZM128.719 26.485H123.269V42.7893H125.544V36.6067H128.707C131.225 36.6067 133.695 34.6502 133.695 31.5459C133.695 28.4416 131.225 26.485 128.707 26.485H128.719ZM99.0483 40.9371C97.4911 40.9371 96.1773 39.5285 96.1773 37.598C96.1773 35.6415 97.4911 34.2067 99.0483 34.2067C100.605 34.2067 101.822 35.6415 101.822 37.598C101.822 39.5285 100.605 40.9371 99.0483 40.9371ZM101.664 33.2676H101.579C101.233 32.8652 100.811 32.5465 100.341 32.3328C99.8709 32.1191 99.3639 32.0154 98.8536 32.0285C97.5144 32.0828 96.2478 32.6951 95.3232 33.7352C94.3985 34.7753 93.8888 36.1612 93.9024 37.598C93.8922 39.0301 94.4041 40.4097 95.329 41.4429C96.254 42.476 97.5187 43.0809 98.8536 43.1284C99.3663 43.1426 99.8757 43.0367 100.346 42.8182C100.817 42.5997 101.237 42.2738 101.579 41.8632H101.664V42.6589C101.664 44.785 100.605 45.9197 98.9023 45.9197C98.333 45.9081 97.7799 45.7144 97.3139 45.3635C96.8479 45.0125 96.4902 44.5204 96.2868 43.9502L94.316 44.8241C94.6874 45.8 95.3226 46.6345 96.1399 47.2203C96.9572 47.806 97.9192 48.1163 98.9023 48.111C101.566 48.111 103.817 46.4154 103.817 42.3328V32.3676H101.664V33.2807V33.2676ZM105.386 42.7893H107.661V26.485H105.386V42.7893ZM111.007 37.4024C110.982 36.9989 111.033 36.5943 111.156 36.2121C111.279 35.8299 111.472 35.4779 111.723 35.1766C111.975 34.8754 112.28 34.631 112.62 34.4577C112.961 34.2845 113.331 34.1858 113.707 34.1676C114.62 34.1676 115.386 34.6502 115.629 35.3415L111.007 37.4154V37.4024ZM118.062 35.5633C117.637 34.3241 116.323 32.0415 113.634 32.0415C110.97 32.0415 108.756 34.272 108.756 37.5719C108.756 40.6893 110.946 43.1284 113.89 43.1284C116.262 43.1284 117.637 41.5632 118.208 40.6632L116.444 39.4111C116.179 39.8811 115.803 40.269 115.355 40.5365C114.908 40.8041 114.402 40.9422 113.89 40.9371C112.734 40.9371 111.907 40.3763 111.384 39.2545L118.306 36.1893L118.062 35.5633ZM62.9543 33.7372V36.085H68.1975C68.1218 37.1876 67.7018 38.2307 67.0053 39.0459C66.4781 39.6217 65.8441 40.0725 65.1442 40.3691C64.4442 40.6657 63.6941 40.8015 62.9421 40.7676C62.1797 40.7659 61.4252 40.6022 60.7222 40.2858C60.0192 39.9695 59.3817 39.5068 58.8466 38.9245C58.3115 38.3423 57.8894 37.652 57.6047 36.8937C57.32 36.1354 57.1784 35.3241 57.188 34.5067C57.1737 33.2931 57.4929 32.1017 58.1058 31.0812C58.7187 30.0607 59.5982 29.2562 60.6346 28.768C61.6711 28.2799 62.8186 28.1296 63.9342 28.3359C65.0498 28.5423 66.084 29.0962 66.908 29.9285L68.4529 28.272C67.7279 27.5031 66.867 26.8971 65.9207 26.4894C64.9744 26.0818 63.9618 25.8808 62.9421 25.8981C60.8014 25.8978 58.7464 26.8006 57.2213 28.4114C55.6962 30.0222 54.8234 32.2117 54.7915 34.5067C54.8234 36.8018 55.6962 38.9913 57.2213 40.6021C58.7464 42.2129 60.8014 43.1157 62.9421 43.1154C65.3387 43.1154 67.1391 42.2806 68.5503 40.7024C69.8293 39.2039 70.5104 37.2282 70.448 35.198C70.448 34.6502 70.4115 34.1546 70.3264 33.7372H62.9421H62.9543ZM76.4211 40.9371C74.8518 40.9371 73.5015 39.5545 73.5015 37.5719C73.5015 35.5763 74.8518 34.2198 76.4211 34.2198C78.0026 34.2198 79.3407 35.5763 79.3407 37.5719C79.3407 39.5545 78.0026 40.9371 76.4211 40.9371ZM76.4211 32.0285C75.7379 32.0162 75.0593 32.151 74.4255 32.425C73.7917 32.6989 73.2155 33.1063 72.7312 33.6232C72.2469 34.14 71.8642 34.7558 71.6057 35.4341C71.3473 36.1124 71.2184 36.8393 71.2266 37.5719C71.2167 38.3057 71.3444 39.034 71.6021 39.7138C71.8598 40.3936 72.2423 41.0109 72.7268 41.5292C73.2113 42.0475 73.788 42.4561 74.4226 42.7308C75.0572 43.0055 75.7368 43.1407 76.4211 43.1284C77.1054 43.1407 77.785 43.0055 78.4196 42.7308C79.0543 42.4561 79.6309 42.0475 80.1154 41.5292C80.5999 41.0109 80.9824 40.3936 81.2401 39.7138C81.4978 39.034 81.6255 38.3057 81.6156 37.5719C81.6239 36.8393 81.4949 36.1124 81.2365 35.4341C80.9781 34.7558 80.5953 34.14 80.111 33.6232C79.6267 33.1063 79.0506 32.6989 78.4168 32.425C77.783 32.151 77.1044 32.0162 76.4211 32.0285ZM87.759 40.9371C86.1776 40.9371 84.8394 39.5545 84.8394 37.5719C84.8394 35.5763 86.1776 34.2198 87.759 34.2198C89.3162 34.2198 90.6787 35.5763 90.6787 37.5719C90.6787 39.5545 89.3162 40.9371 87.759 40.9371ZM87.759 32.0285C87.0758 32.0162 86.3972 32.151 85.7634 32.425C85.1296 32.6989 84.5535 33.1063 84.0691 33.6232C83.5848 34.14 83.2021 34.7558 82.9436 35.4341C82.6852 36.1124 82.5563 36.8393 82.5645 37.5719C82.5546 38.3057 82.6823 39.034 82.9401 39.7138C83.1978 40.3936 83.5802 41.0109 84.0647 41.5292C84.5492 42.0475 85.1259 42.4561 85.7605 42.7308C86.3951 43.0055 87.0747 43.1407 87.759 43.1284C88.4433 43.1407 89.1229 43.0055 89.7576 42.7308C90.3922 42.4561 90.9688 42.0475 91.4533 41.5292C91.9378 41.0109 92.3203 40.3936 92.578 39.7138C92.8357 39.034 92.9634 38.3057 92.9536 37.5719C92.9618 36.8393 92.8328 36.1124 92.5744 35.4341C92.316 34.7558 91.9333 34.14 91.4489 33.6232C90.9646 33.1063 90.3885 32.6989 89.7547 32.425C89.1209 32.151 88.4423 32.0162 87.759 32.0285Z"
          fill="white"/>
    <path fill-rule="evenodd" clip-rule="evenodd"
          d="M61.4948 17.7069C61.4948 18.6852 61.2271 19.4678 60.6797 20.0547C60.0714 20.746 59.2564 21.0982 58.271 21.0982C57.3221 21.0982 56.507 20.746 55.838 20.0417C55.5164 19.7019 55.2631 19.2952 55.0937 18.8466C54.9242 18.3979 54.8422 17.9169 54.8526 17.433C54.8526 16.3895 55.181 15.5026 55.8501 14.7982C56.507 14.0939 57.3099 13.7417 58.271 13.7417C58.7333 13.7417 59.1834 13.846 59.6092 14.0417C60.0471 14.2373 60.3877 14.4982 60.6432 14.8243L60.0593 15.4373C59.8398 15.1618 59.5648 14.9434 59.2549 14.7988C58.9451 14.6542 58.6086 14.5871 58.271 14.6026C57.5776 14.6026 56.9815 14.8634 56.4705 15.3852C55.9718 15.9069 55.7163 16.5852 55.7163 17.4199C55.7163 18.2547 55.9596 18.933 56.4705 19.4547C56.9815 19.9765 57.5654 20.2373 58.271 20.2373C59.0009 20.2373 59.6092 19.9765 60.0958 19.4547C60.4121 19.1025 60.6067 18.633 60.6554 18.0199H58.271V17.1721H61.4461C61.4826 17.3547 61.4948 17.5373 61.4948 17.6939"
          fill="white"/>
    <path fill-rule="evenodd" clip-rule="evenodd"
          d="M61.4945 17.7069H61.3851C61.3851 18.6721 61.1174 19.4025 60.6065 19.9764C59.9982 20.6416 59.2318 20.9808 58.2708 20.9808C57.3462 20.9808 56.5677 20.6416 55.9229 19.9634C55.6075 19.6336 55.3592 19.2374 55.1938 18.7996C55.0284 18.3618 54.9494 17.8921 54.9619 17.4199C54.9619 16.4025 55.2782 15.5677 55.9351 14.8764C56.2394 14.5455 56.6035 14.2845 57.0051 14.1096C57.4067 13.9347 57.8374 13.8494 58.2708 13.859C58.7209 13.859 59.1588 13.9504 59.5725 14.146C59.9861 14.3417 60.3024 14.5895 60.5578 14.9025L60.643 14.8243L60.5578 14.746L59.9861 15.359L60.0591 15.4373L60.1442 15.3721C59.6941 14.7851 59.0494 14.4851 58.2708 14.4851C57.5409 14.4851 56.9205 14.759 56.3973 15.3069C55.8742 15.8416 55.6066 16.559 55.6066 17.4199C55.6066 18.2808 55.8742 18.9851 56.3973 19.5329C56.9205 20.0808 57.553 20.3547 58.2708 20.3547C59.025 20.3547 59.6698 20.0808 60.1807 19.5329C60.5213 19.1677 60.716 18.659 60.7646 18.0329V17.9025H58.3924V17.2895H61.4581V17.1721L61.3486 17.1982C61.3851 17.3677 61.3972 17.5373 61.3972 17.7069H61.6162C61.6162 17.5243 61.604 17.3416 61.5675 17.159L61.5554 17.0547H58.1491V18.1373H60.643V18.0199H60.5213C60.4848 18.6069 60.3024 19.0503 60.0104 19.3634C59.536 19.8721 58.9642 20.1199 58.2586 20.1199C57.5895 20.1199 57.0178 19.859 56.5312 19.3634C56.0446 18.8677 55.8013 18.2286 55.8013 17.4199C55.8013 16.6112 56.0446 15.9851 56.5312 15.4634C57.0178 14.9677 57.5895 14.7199 58.2586 14.7199C58.9885 14.7199 59.5481 14.9808 59.9617 15.5156L60.0469 15.6199L60.7038 14.9025L60.7768 14.8373L60.716 14.746C60.4245 14.3854 60.0577 14.1039 59.6454 13.9243C59.2107 13.7263 58.7431 13.6242 58.2708 13.6243C57.2976 13.6243 56.446 13.9895 55.7769 14.7199C55.4422 15.068 55.1777 15.4861 54.9999 15.9483C54.822 16.4105 54.7345 16.907 54.7429 17.4069C54.7429 18.4764 55.0835 19.3895 55.7769 20.1199C56.1023 20.4724 56.4912 20.7503 56.9199 20.9364C57.3487 21.1225 57.8083 21.2131 58.2708 21.2025C59.2805 21.2025 60.1199 20.8373 60.7525 20.1199L60.6795 20.0416L60.7525 20.1329C61.3242 19.5199 61.604 18.6982 61.604 17.6938H61.4945V17.7069ZM66.5431 14.759H63.5505V17.0025H66.2511V17.8373H63.5505V20.0808H66.5431V20.9416H62.7111V13.8982H66.5431V14.759Z"
          fill="white"/>
    <path fill-rule="evenodd" clip-rule="evenodd"
          d="M66.5432 14.7593V14.6419H63.441V17.1201H66.1417V17.7201H63.441V20.1984H66.4337V20.8245H62.8206V14.0158H66.4337V14.7593H66.5432V14.6419V14.7723H66.6526V13.781H62.6016V21.0592H66.6526V19.9636H63.66V17.9549H66.3607V16.8853H63.66V14.8767H66.6526V14.7593H66.531H66.5432ZM70.0954 20.9418H69.256V14.7593H67.4312V13.8984H71.9323V14.7593H70.1075V20.9418"
          fill="white"/>
    <path fill-rule="evenodd" clip-rule="evenodd"
          d="M70.0955 20.9418V20.8245H69.3656V14.6419H67.5408V14.0158H71.823V14.6419H69.9982V20.9418H70.0955V20.8245V20.9549H70.2172V14.8767H72.0419V13.781H67.3097V14.8767H69.1466V21.0592H70.205V20.9418H70.0955ZM75.2049 20.9418H76.0564V13.8984H75.2049V20.9418Z"
          fill="white"/>
    <path fill-rule="evenodd" clip-rule="evenodd"
          d="M75.2048 20.9418H75.3142V14.0288H75.9347V20.8245H75.2048V20.9549H75.3142H75.1926V21.0592H76.1658V13.781H75.0953V21.0592H75.2048V20.9418ZM79.791 20.9418H78.9395V14.7593H77.1147V13.8984H81.6158V14.7593H79.791V20.9418Z"
          fill="white"/>
    <path fill-rule="evenodd" clip-rule="evenodd"
          d="M79.7908 20.9418V20.8244H79.0609V14.6418H77.2239V14.0157H81.5061V14.6418H79.6813V20.9418H79.7908V20.8244V20.9548H79.9003V14.8766H81.7251V13.7809H77.005V14.8766H78.8298V21.0592H79.9003V20.9418H79.7786H79.7908ZM85.9707 19.4418C86.4573 19.9635 87.0656 20.2244 87.759 20.2244C88.4646 20.2244 89.0606 19.9635 89.5473 19.4418C90.0339 18.92 90.2772 18.2418 90.2772 17.42C90.2772 16.5983 90.0339 15.9331 89.5473 15.3983C89.0606 14.8766 88.4646 14.6157 87.759 14.6157C87.0534 14.6157 86.4573 14.8766 85.9707 15.3983C85.4841 15.9201 85.2408 16.5983 85.2408 17.42C85.2408 18.2418 85.4841 18.92 85.9707 19.4418ZM90.1677 20.0287C89.5229 20.7461 88.72 21.0983 87.759 21.0983C86.7979 21.0983 85.995 20.7461 85.3503 20.0287C85.0332 19.6861 84.7837 19.2785 84.6165 18.8304C84.4493 18.3822 84.3679 17.9026 84.3771 17.42C84.3673 16.9385 84.4477 16.4598 84.6136 16.0123C84.7795 15.5647 85.0274 15.1573 85.3428 14.8144C85.6581 14.4714 86.0345 14.1997 86.4495 14.0155C86.8645 13.8313 87.3098 13.7382 87.759 13.7418C88.2082 13.7382 88.6534 13.8313 89.0685 14.0155C89.4835 14.1997 89.8598 14.4714 90.1752 14.8144C90.4905 15.1573 90.7385 15.5647 90.9044 16.0123C91.0702 16.4598 91.1507 16.9385 91.1409 17.42C91.1409 18.4505 90.8124 19.3244 90.1677 20.0287Z"
          fill="white"/>
    <path fill-rule="evenodd" clip-rule="evenodd"
          d="M85.9708 19.4417L85.8979 19.52C86.4088 20.0678 87.0292 20.3548 87.7591 20.3548C88.489 20.3548 89.1216 20.0678 89.6204 19.52C90.1313 18.9722 90.3868 18.2678 90.3868 17.433C90.3868 16.5722 90.1313 15.8678 89.6204 15.32C89.3806 15.0508 89.0914 14.8377 88.7711 14.694C88.4508 14.5504 88.1063 14.4793 87.7591 14.4852C87.0292 14.4852 86.4088 14.7722 85.8979 15.32C85.6445 15.5964 85.4459 15.925 85.3142 16.2859C85.1825 16.6468 85.1203 17.0326 85.1314 17.42C85.1314 18.2678 85.3869 18.9852 85.8979 19.52L86.056 19.3635C85.8212 19.1081 85.6376 18.804 85.5162 18.4698C85.3949 18.1356 85.3385 17.7784 85.3504 17.42C85.3504 16.6374 85.5937 15.9852 86.056 15.4765C86.2763 15.2319 86.5412 15.0385 86.8342 14.9083C87.1272 14.7782 87.442 14.7141 87.7591 14.72C88.4404 14.72 89 14.9809 89.4622 15.4765C89.9367 15.9983 90.1678 16.6244 90.1678 17.433C90.1678 18.2156 89.9245 18.8548 89.4622 19.3635C89 19.8722 88.4404 20.12 87.7591 20.12C87.442 20.1259 87.1272 20.0618 86.8342 19.9317C86.5412 19.8015 86.2763 19.6081 86.056 19.3635L85.9708 19.4417ZM90.1678 20.0287L90.0948 19.9504C89.4622 20.6417 88.6958 20.9809 87.7591 20.9939C87.3253 20.9958 86.8956 20.9044 86.4953 20.7253C86.095 20.5462 85.7321 20.2829 85.4283 19.951C85.1244 19.6191 84.8856 19.2253 84.7259 18.7929C84.5663 18.3604 84.4891 17.898 84.4989 17.433C84.4875 16.967 84.5634 16.5032 84.7223 16.0692C84.8812 15.6352 85.1197 15.2399 85.4238 14.9066C85.7279 14.5733 86.0912 14.3088 86.4924 14.1289C86.8935 13.949 87.3243 13.8572 87.7591 13.8591C88.6958 13.8591 89.4622 14.1983 90.0827 14.9026C90.7153 15.5939 91.0316 16.4287 91.0316 17.42C91.0316 18.4243 90.7153 19.2591 90.0948 19.9504L90.253 20.12C90.9099 19.3896 91.2505 18.4765 91.2505 17.42C91.2603 16.9231 91.177 16.4291 91.0056 15.9673C90.8343 15.5055 90.5782 15.0852 90.2527 14.7313C89.9272 14.3774 89.5388 14.0971 89.1105 13.907C88.6822 13.7169 88.2227 13.6208 87.7591 13.6244C87.2966 13.6225 86.8384 13.7199 86.4115 13.9108C85.9846 14.1017 85.5977 14.3823 85.2734 14.736C84.9492 15.0897 84.6943 15.5094 84.5237 15.9703C84.353 16.4313 84.2701 16.9242 84.2799 17.42C84.2799 18.4765 84.6083 19.3765 85.2774 20.12C85.9343 20.8504 86.7737 21.2156 87.7591 21.2156C88.7445 21.2156 89.5839 20.8504 90.253 20.12L90.1678 20.0287ZM92.3332 20.9417V13.8983H93.3551L96.5424 19.3765H96.5789L96.5424 18.02V13.8983H97.3939V20.9417H96.5059L93.1605 15.2026H93.124L93.1605 16.5591V20.9417H92.3211"
          fill="white"/>
    <path fill-rule="evenodd" clip-rule="evenodd"
          d="M92.3331 20.9418H92.4304V14.0288H93.282L96.4814 19.5071H96.6882L96.6517 18.0201V14.0158H97.2721V20.8245H96.5665L93.2211 15.0853H93.0143L93.0508 16.5593V20.8245H92.3209V20.9549H92.4426H92.3209V21.0592H93.2698V16.5593L93.2333 15.1897H93.1238V15.3201H93.1603V15.1897L93.0752 15.2549L96.4449 21.0592H97.4911V13.781H96.4327V18.0201L96.4692 19.3766H96.5787V19.2592H96.5422V19.3897L96.6395 19.3114L93.4158 13.781H92.2114V21.0592H92.3331V20.9418Z"
          fill="white"/>
</svg>
